<svg version="1.1" id="Layer_1" xmlns="http://www.w3.org/2000/svg" xmlns:xlink="http://www.w3.org/1999/xlink" x="0px" y="0px"
	 width="100%" viewBox="0 0 432 432" enable-background="new 0 0 432 432" xml:space="preserve">
<path fill="#000000" opacity="1.000000" stroke="none" 
	d="
M204.000000,433.000000 
	C136.000015,433.000000 68.500015,433.000000 1.000018,433.000000 
	C1.000012,289.000031 1.000012,145.000046 1.000006,1.000057 
	C144.999954,1.000038 288.999908,1.000038 432.999908,1.000019 
	C432.999939,144.999939 432.999939,288.999878 432.999969,432.999908 
	C356.833344,433.000000 280.666656,433.000000 204.000000,433.000000 
M282.062347,135.085876 
	C257.227966,136.363190 235.251511,144.685532 217.132416,161.885178 
	C213.388565,158.901245 210.140549,156.060638 206.643997,153.568756 
	C190.434204,142.016495 172.248566,136.051086 152.448044,135.113297 
	C146.077286,134.811569 142.238419,138.899261 142.082764,145.268127 
	C142.003448,148.513504 142.068878,151.762421 142.068878,155.026321 
	C128.475159,154.406219 123.641136,161.567749 123.781219,172.901886 
	C124.149605,202.709885 123.926132,232.524994 123.984482,262.337158 
	C124.009705,275.221100 126.702309,278.363190 139.329712,280.587433 
	C140.148834,280.731689 140.981644,280.796417 141.804077,280.923950 
	C163.372543,284.268127 183.948746,290.598999 202.680557,302.006989 
	C212.569855,308.029694 221.539520,307.429596 231.737045,301.935730 
	C243.211838,295.753784 255.448746,290.706024 267.821808,286.560883 
	C277.679840,283.258240 288.248962,282.092316 298.486359,279.902893 
	C305.843475,278.329437 309.835480,274.187866 309.853363,267.475281 
	C309.941345,234.498062 309.952881,201.520187 309.822144,168.543198 
	C309.791046,160.696930 303.961731,155.312607 296.103027,155.145782 
	C294.824402,155.118622 293.544708,155.141968 291.842743,155.141968 
	C291.842743,152.288910 291.838654,149.826172 291.843506,147.363464 
	C291.858490,139.747864 290.253571,137.546371 282.062347,135.085876 
z"/>
<path fill="#CAD838" opacity="1.000000" stroke="none" 
	d="
M282.484985,135.101471 
	C290.253571,137.546371 291.858490,139.747864 291.843506,147.363464 
	C291.838654,149.826172 291.842743,152.288910 291.842743,155.141968 
	C293.544708,155.141968 294.824402,155.118622 296.103027,155.145782 
	C303.961731,155.312607 309.791046,160.696930 309.822144,168.543198 
	C309.952881,201.520187 309.941345,234.498062 309.853363,267.475281 
	C309.835480,274.187866 305.843475,278.329437 298.486359,279.902893 
	C288.248962,282.092316 277.679840,283.258240 267.821808,286.560883 
	C255.448746,290.706024 243.211838,295.753784 231.737045,301.935730 
	C221.539520,307.429596 212.569855,308.029694 202.680557,302.006989 
	C183.948746,290.598999 163.372543,284.268127 141.804077,280.923950 
	C140.981644,280.796417 140.148834,280.731689 139.329712,280.587433 
	C126.702309,278.363190 124.009705,275.221100 123.984482,262.337158 
	C123.926132,232.524994 124.149605,202.709885 123.781219,172.901886 
	C123.641136,161.567749 128.475159,154.406219 142.068878,155.026321 
	C142.068878,151.762421 142.003448,148.513504 142.082764,145.268127 
	C142.238419,138.899261 146.077286,134.811569 152.448044,135.113297 
	C172.248566,136.051086 190.434204,142.016495 206.643997,153.568756 
	C210.140549,156.060638 213.388565,158.901245 217.132416,161.885178 
	C235.251511,144.685532 257.227966,136.363190 282.484985,135.101471 
M188.643997,155.739288 
	C178.396820,153.790695 168.215500,151.275085 157.881409,150.074646 
	C149.753998,149.130554 145.942764,153.463898 145.938354,161.570190 
	C145.922409,190.890030 145.920898,220.209869 145.922653,249.529709 
	C145.923065,256.555573 148.764725,260.239319 155.605942,261.959869 
	C159.923462,263.045776 164.328110,263.811005 168.602661,265.037354 
	C184.563110,269.616333 198.978821,277.228882 211.909439,287.626099 
	C215.285629,290.340820 218.492569,290.241882 221.894196,287.768311 
	C226.443405,284.460266 230.865250,280.923157 235.672104,278.034027 
	C247.357300,271.010712 259.635315,265.284180 273.235596,263.010986 
	C285.186096,261.013580 287.468109,258.723267 287.580872,246.400238 
	C287.841522,217.918198 287.887634,189.433975 287.943146,160.950485 
	C287.957031,153.837936 283.866333,149.774063 276.688171,149.986343 
	C256.565369,150.581421 238.092972,156.514587 221.408676,167.802444 
	C218.645340,169.671967 216.411865,170.150818 213.225922,168.357529 
	C205.428955,163.968872 197.352997,160.075851 188.643997,155.739288 
z"/>
<path fill="#010100" opacity="1.000000" stroke="none" 
	d="
M189.016663,155.861313 
	C197.352997,160.075851 205.428955,163.968872 213.225922,168.357529 
	C216.411865,170.150818 218.645340,169.671967 221.408676,167.802444 
	C238.092972,156.514587 256.565369,150.581421 276.688171,149.986343 
	C283.866333,149.774063 287.957031,153.837936 287.943146,160.950485 
	C287.887634,189.433975 287.841522,217.918198 287.580872,246.400238 
	C287.468109,258.723267 285.186096,261.013580 273.235596,263.010986 
	C259.635315,265.284180 247.357300,271.010712 235.672104,278.034027 
	C230.865250,280.923157 226.443405,284.460266 221.894196,287.768311 
	C218.492569,290.241882 215.285629,290.340820 211.909439,287.626099 
	C198.978821,277.228882 184.563110,269.616333 168.602661,265.037354 
	C164.328110,263.811005 159.923462,263.045776 155.605942,261.959869 
	C148.764725,260.239319 145.923065,256.555573 145.922653,249.529709 
	C145.920898,220.209869 145.922409,190.890030 145.938354,161.570190 
	C145.942764,153.463898 149.753998,149.130554 157.881409,150.074646 
	C168.215500,151.275085 178.396820,153.790695 189.016663,155.861313 
M237.281708,231.756149 
	C240.716171,229.728012 244.274384,227.880585 247.557983,225.632141 
	C253.451950,221.596268 253.510330,215.960724 247.552124,211.996567 
	C242.610260,208.708633 237.334564,205.921051 232.195175,202.931732 
	C224.169724,198.263718 216.254898,193.387192 208.071167,189.014572 
	C198.995331,184.165298 193.231659,187.935120 193.335434,198.233566 
	C193.400864,204.725281 193.407654,211.217667 193.426315,217.709793 
	C193.449295,225.700180 193.305695,233.694687 193.521835,241.679626 
	C193.681564,247.581207 196.607224,251.258194 201.165436,250.833344 
	C204.148849,250.555252 207.170868,249.077393 209.862289,247.575500 
	C218.862350,242.553146 227.721390,237.278122 237.281708,231.756149 
z"/>
<path fill="#C9D738" opacity="1.000000" stroke="none" 
	d="
M236.958069,231.928009 
	C227.721390,237.278122 218.862350,242.553146 209.862289,247.575500 
	C207.170868,249.077393 204.148849,250.555252 201.165436,250.833344 
	C196.607224,251.258194 193.681564,247.581207 193.521835,241.679626 
	C193.305695,233.694687 193.449295,225.700180 193.426315,217.709793 
	C193.407654,211.217667 193.400864,204.725281 193.335434,198.233566 
	C193.231659,187.935120 198.995331,184.165298 208.071167,189.014572 
	C216.254898,193.387192 224.169724,198.263718 232.195175,202.931732 
	C237.334564,205.921051 242.610260,208.708633 247.552124,211.996567 
	C253.510330,215.960724 253.451950,221.596268 247.557983,225.632141 
	C244.274384,227.880585 240.716171,229.728012 236.958069,231.928009 
z"/>
</svg>